# xmcd
#
# Track frame offsets:
#	150
#	19514
#	34285
#	57972
#	71450
#	91909
#	106790
#	125311
#	141770
#	163962
#	181763
#	201838
#
# Disc length: 3348 seconds
#
# Revision: 1
# Processed by: cddbd v1.5PL3 Copyright (c) Steve Scherf et al.
# Submitted via: CDmax 2.0
#
DISCID=9c0d120c
DTITLE=Chris Cacavas - Self taut
DYEAR=2004
DGENRE=Americana
TTITLE0=Already gone
TTITLE1=Certain now
TTITLE2=Things I can't say
TTITLE3=Breakdown
TTITLE4=Sleepwalk
TTITLE5=Altered now
TTITLE6=Heaven is hell
TTITLE7=Split a man in two
TTITLE8=Better days
TTITLE9=Perfect show
TTITLE10=Sentimental
TTITLE11=Walk on water
EXTD=
EXTT0=
EXTT1=
EXTT2=
EXTT3=
EXTT4=
EXTT5=
EXTT6=
EXTT7=
EXTT8=
EXTT9=
EXTT10=
EXTT11=
PLAYORDER=
